<mxfile host="app.diagrams.net" modified="2023-04-20T11:54:26.510Z" agent="Mozilla/5.0 (Windows NT 10.0; Win64; x64) AppleWebKit/537.36 (KHTML, like Gecko) Chrome/112.0.0.0 Safari/537.36" etag="znmIijXZy7eUXGFHrvsh" version="21.2.1" type="github">
  <diagram name="Trang-1" id="0e1sLzncPKR7wj9du6N7">
    <mxGraphModel dx="1050" dy="624" grid="1" gridSize="10" guides="1" tooltips="1" connect="1" arrows="1" fold="1" page="1" pageScale="1" pageWidth="827" pageHeight="1169" math="0" shadow="0">
      <root>
        <mxCell id="0" />
        <mxCell id="1" parent="0" />
        <mxCell id="p2CfshqkD0UgvBv5mtHA-18" value="" style="edgeStyle=orthogonalEdgeStyle;rounded=0;orthogonalLoop=1;jettySize=auto;html=1;" edge="1" parent="1" source="p2CfshqkD0UgvBv5mtHA-1" target="p2CfshqkD0UgvBv5mtHA-2">
          <mxGeometry relative="1" as="geometry" />
        </mxCell>
        <mxCell id="p2CfshqkD0UgvBv5mtHA-1" value="Bắt đầu" style="ellipse;whiteSpace=wrap;html=1;" vertex="1" parent="1">
          <mxGeometry x="300" y="10" width="190" height="70" as="geometry" />
        </mxCell>
        <mxCell id="p2CfshqkD0UgvBv5mtHA-19" value="" style="edgeStyle=orthogonalEdgeStyle;rounded=0;orthogonalLoop=1;jettySize=auto;html=1;" edge="1" parent="1" source="p2CfshqkD0UgvBv5mtHA-2" target="p2CfshqkD0UgvBv5mtHA-3">
          <mxGeometry relative="1" as="geometry" />
        </mxCell>
        <mxCell id="p2CfshqkD0UgvBv5mtHA-2" value="Nhập a, b, c, d" style="shape=parallelogram;perimeter=parallelogramPerimeter;whiteSpace=wrap;html=1;fixedSize=1;" vertex="1" parent="1">
          <mxGeometry x="260" y="110" width="270" height="60" as="geometry" />
        </mxCell>
        <mxCell id="p2CfshqkD0UgvBv5mtHA-15" value="" style="edgeStyle=orthogonalEdgeStyle;rounded=0;orthogonalLoop=1;jettySize=auto;html=1;" edge="1" parent="1" source="p2CfshqkD0UgvBv5mtHA-3" target="p2CfshqkD0UgvBv5mtHA-4">
          <mxGeometry relative="1" as="geometry" />
        </mxCell>
        <mxCell id="p2CfshqkD0UgvBv5mtHA-16" value="" style="edgeStyle=orthogonalEdgeStyle;rounded=0;orthogonalLoop=1;jettySize=auto;html=1;" edge="1" parent="1" source="p2CfshqkD0UgvBv5mtHA-3" target="p2CfshqkD0UgvBv5mtHA-12">
          <mxGeometry relative="1" as="geometry" />
        </mxCell>
        <mxCell id="p2CfshqkD0UgvBv5mtHA-3" value="a&amp;nbsp; &amp;nbsp;=&amp;nbsp; &amp;nbsp;d" style="rhombus;whiteSpace=wrap;html=1;" vertex="1" parent="1">
          <mxGeometry x="325" y="200" width="140" height="60" as="geometry" />
        </mxCell>
        <mxCell id="p2CfshqkD0UgvBv5mtHA-21" value="" style="edgeStyle=orthogonalEdgeStyle;rounded=0;orthogonalLoop=1;jettySize=auto;html=1;" edge="1" parent="1" source="p2CfshqkD0UgvBv5mtHA-4" target="p2CfshqkD0UgvBv5mtHA-20">
          <mxGeometry relative="1" as="geometry" />
        </mxCell>
        <mxCell id="p2CfshqkD0UgvBv5mtHA-27" value="" style="edgeStyle=orthogonalEdgeStyle;rounded=0;orthogonalLoop=1;jettySize=auto;html=1;" edge="1" parent="1" source="p2CfshqkD0UgvBv5mtHA-4" target="p2CfshqkD0UgvBv5mtHA-22">
          <mxGeometry relative="1" as="geometry" />
        </mxCell>
        <mxCell id="p2CfshqkD0UgvBv5mtHA-4" value="a&amp;nbsp; &amp;nbsp;&amp;gt;&amp;nbsp; &amp;nbsp;d" style="rhombus;whiteSpace=wrap;html=1;" vertex="1" parent="1">
          <mxGeometry x="510" y="200" width="120" height="60" as="geometry" />
        </mxCell>
        <mxCell id="p2CfshqkD0UgvBv5mtHA-33" style="edgeStyle=orthogonalEdgeStyle;rounded=0;orthogonalLoop=1;jettySize=auto;html=1;entryX=0.5;entryY=0;entryDx=0;entryDy=0;" edge="1" parent="1" source="p2CfshqkD0UgvBv5mtHA-10" target="p2CfshqkD0UgvBv5mtHA-11">
          <mxGeometry relative="1" as="geometry" />
        </mxCell>
        <mxCell id="p2CfshqkD0UgvBv5mtHA-10" value="&#xa;&#xa;&#xa;s = (a + d) * sqrt(p * (p - e) * (p - b) * (p - c)) / e " style="swimlane;startSize=0;fontStyle=0;verticalAlign=middle;" vertex="1" parent="1">
          <mxGeometry x="485" y="400" width="330" height="50" as="geometry" />
        </mxCell>
        <mxCell id="p2CfshqkD0UgvBv5mtHA-29" style="edgeStyle=orthogonalEdgeStyle;rounded=0;orthogonalLoop=1;jettySize=auto;html=1;entryX=0.5;entryY=0;entryDx=0;entryDy=0;" edge="1" parent="1" source="p2CfshqkD0UgvBv5mtHA-11" target="p2CfshqkD0UgvBv5mtHA-13">
          <mxGeometry relative="1" as="geometry">
            <Array as="points">
              <mxPoint x="650" y="610" />
              <mxPoint x="395" y="610" />
            </Array>
          </mxGeometry>
        </mxCell>
        <mxCell id="p2CfshqkD0UgvBv5mtHA-11" value="In ra diện tích hình thang s" style="shape=parallelogram;perimeter=parallelogramPerimeter;whiteSpace=wrap;html=1;fixedSize=1;" vertex="1" parent="1">
          <mxGeometry x="547.5" y="490" width="205" height="60" as="geometry" />
        </mxCell>
        <mxCell id="p2CfshqkD0UgvBv5mtHA-28" style="edgeStyle=orthogonalEdgeStyle;rounded=0;orthogonalLoop=1;jettySize=auto;html=1;entryX=0.5;entryY=0;entryDx=0;entryDy=0;" edge="1" parent="1" source="p2CfshqkD0UgvBv5mtHA-12" target="p2CfshqkD0UgvBv5mtHA-13">
          <mxGeometry relative="1" as="geometry">
            <mxPoint x="280" y="640" as="targetPoint" />
            <Array as="points">
              <mxPoint x="190" y="610" />
              <mxPoint x="395" y="610" />
            </Array>
          </mxGeometry>
        </mxCell>
        <mxCell id="p2CfshqkD0UgvBv5mtHA-12" value="In ra kết quả không tính&amp;nbsp;&lt;br&gt;được" style="shape=parallelogram;perimeter=parallelogramPerimeter;whiteSpace=wrap;html=1;fixedSize=1;" vertex="1" parent="1">
          <mxGeometry x="100" y="205" width="180" height="50" as="geometry" />
        </mxCell>
        <mxCell id="p2CfshqkD0UgvBv5mtHA-13" value="Kết thúc" style="ellipse;whiteSpace=wrap;html=1;" vertex="1" parent="1">
          <mxGeometry x="300" y="650" width="190" height="70" as="geometry" />
        </mxCell>
        <mxCell id="p2CfshqkD0UgvBv5mtHA-24" style="edgeStyle=orthogonalEdgeStyle;rounded=0;orthogonalLoop=1;jettySize=auto;html=1;movable=1;resizable=1;rotatable=1;deletable=1;editable=1;locked=0;connectable=1;entryX=0.5;entryY=0;entryDx=0;entryDy=0;" edge="1" parent="1" source="p2CfshqkD0UgvBv5mtHA-20" target="p2CfshqkD0UgvBv5mtHA-22">
          <mxGeometry relative="1" as="geometry">
            <mxPoint x="710" y="360" as="targetPoint" />
          </mxGeometry>
        </mxCell>
        <mxCell id="p2CfshqkD0UgvBv5mtHA-20" value="&lt;div style=&quot;text-align: left;&quot;&gt;&lt;span style=&quot;background-color: initial;&quot;&gt;medium = a&lt;/span&gt;&lt;/div&gt;&lt;div style=&quot;text-align: left;&quot;&gt;&lt;span style=&quot;background-color: initial;&quot;&gt;a = d&lt;/span&gt;&lt;/div&gt;&lt;div style=&quot;text-align: left;&quot;&gt;&lt;span style=&quot;background-color: initial;&quot;&gt;d = medium&lt;/span&gt;&lt;/div&gt;" style="rounded=0;whiteSpace=wrap;html=1;" vertex="1" parent="1">
          <mxGeometry x="672.5" y="200" width="120" height="60" as="geometry" />
        </mxCell>
        <mxCell id="p2CfshqkD0UgvBv5mtHA-32" style="edgeStyle=orthogonalEdgeStyle;rounded=0;orthogonalLoop=1;jettySize=auto;html=1;entryX=0.5;entryY=0;entryDx=0;entryDy=0;entryPerimeter=0;" edge="1" parent="1" source="p2CfshqkD0UgvBv5mtHA-22" target="p2CfshqkD0UgvBv5mtHA-10">
          <mxGeometry relative="1" as="geometry">
            <mxPoint x="650" y="410" as="targetPoint" />
          </mxGeometry>
        </mxCell>
        <mxCell id="p2CfshqkD0UgvBv5mtHA-22" value="e = a - d&lt;br&gt;p = ( b + c + e ) /2&amp;nbsp;" style="rounded=0;whiteSpace=wrap;html=1;fontStyle=0;fontSize=12;labelBorderColor=none;" vertex="1" parent="1">
          <mxGeometry x="590" y="300" width="120" height="60" as="geometry" />
        </mxCell>
        <mxCell id="p2CfshqkD0UgvBv5mtHA-35" value="Sai" style="text;html=1;strokeColor=none;fillColor=none;align=center;verticalAlign=middle;whiteSpace=wrap;rounded=0;" vertex="1" parent="1">
          <mxGeometry x="450" y="190" width="60" height="30" as="geometry" />
        </mxCell>
        <mxCell id="p2CfshqkD0UgvBv5mtHA-36" value="Đúng" style="text;html=1;strokeColor=none;fillColor=none;align=center;verticalAlign=middle;whiteSpace=wrap;rounded=0;" vertex="1" parent="1">
          <mxGeometry x="280" y="190" width="60" height="30" as="geometry" />
        </mxCell>
        <mxCell id="p2CfshqkD0UgvBv5mtHA-38" value="Đúng" style="text;html=1;strokeColor=none;fillColor=none;align=center;verticalAlign=middle;whiteSpace=wrap;rounded=0;" vertex="1" parent="1">
          <mxGeometry x="510" y="255" width="60" height="30" as="geometry" />
        </mxCell>
        <mxCell id="p2CfshqkD0UgvBv5mtHA-40" value="Sai" style="text;html=1;strokeColor=none;fillColor=none;align=center;verticalAlign=middle;whiteSpace=wrap;rounded=0;" vertex="1" parent="1">
          <mxGeometry x="612.5" y="190" width="60" height="30" as="geometry" />
        </mxCell>
      </root>
    </mxGraphModel>
  </diagram>
</mxfile>
